/* XPM */
static char *freeimage[] = {
/* width height num_colors chars_per_pixel */
"32 32 40 1",
/* colors */
"  c #ffffff",
". c #ea7f3c",
"X c #ea7b36",
"o c #e87026",
"O c #e55c06",
"+ c #e55901",
"@ c #ec894c",
"# c #ee925a",
"$ c #ed8d52",
"% c #ef9a66",
"& c #fbe8dd",
"* c #fae3d5",
"= c #f0a06e",
"- c #f6c7a9",
"; c #f1a97d",
": c #f9dac7",
"> c #eb813e",
", c #fdf2ed",
"< c #fdf7f2",
"1 c #e76819",
"2 c #fcece2",
"3 c #f3b895",
"4 c #f6c9ad",
"5 c #eb8140",
"6 c #fdf8f5",
"7 c #f7d2bb",
"8 c #f4bf9d",
"9 c #f8d2bc",
"0 c #f0a373",
"q c #e6600c",
"w c #f3b58f",
"e c #e76a1c",
"r c #f9dece",
"t c #e9772e",
"y c #f4bc9a",
"u c #f2ad82",
"i c #ef9d6a",
"p c #f3b792",
"a c #f5c1a2",
"s c #f8d5bf",
/* pixels */
" ..X.X.X.X.X.X.X.X.X.X.X.X.X.X. ",
"..X.X.X.X.X.X.X.X.X.X.X.X.X.X.oO",
".X.X.X.X.X.X.X.X.X.X.X.X.X.X.o++",
".X.X.X.X.X.X.X.X.X.X.X.X.X.XoO++",
".X.X.X.X.X.X.X.X.X.X.X.X.X.o++++",
".X.X.X.XX.X.X.X.X.XX.X.XX.o+++++",
".X.X.X.X..X.X.X.X.X..X.X.o++++++",
".X.X.X@####@.X.X.X.X$###@OO+++++",
".X.X.X%    &.X.X.X.@    &O++++++",
".X.X.X.*    =.X.X.X-    =+++++++",
".X.X.X.;    :.X.X.>,   <1+++++++",
".X.X.XX.2    #X.X.;    3++++++++",
".X.X.X..3    4..X.*    oO+++++++",
".X.X.X.X56    @X.%    7O++++++++",
".X.X.X.X.-    8.X4    5O++++++++",
".X.X.X.X.$    ,5X    *++++++++++",
".X.X.X.X.X9    0;    %O+++++++++",
".X.X.X.X.X%    *2   ,qO+++++++++",
".X.X.X.X.X.*        w+++++++++++",
".X.X.X.X.XX;        e+++++++++++",
".X.X.X.X.X.o&      4O+++++++++++",
".X.X.X.X.Xe+0      .++++++++++++",
".X.X.X.X.e++1,    r+++++++++++++",
".X.X.X.Xe++++5####tO++++++++++++",
".X.X.XXe++++++++++++++++++++++++",
".X.X.XeO++O+++O+O+O..O++++++++++",
".X.X.1++++yuiwu4=47=3p++++++++++",
".X.X1+++++yr,i9ias1%2iO+++++++++",
".X.1++++++o.@1t#tX+oo$++++++++++",
".X1++++++++++++++++++++++++++++O",
".1+++++++++++++++++++++++++++++O",
" OOO+O+O+O+O+O+O+O+O+O+O+O+O+OO "
};
