/* XPM */
static char *freeimage[] = {
/* width height num_colors chars_per_pixel */
"16 16 30 1",
/* colors */
"  c #ed9159",
". c #ea7c38",
"X c #ea8241",
"o c #e86e21",
"O c #e45801",
"+ c #ec884a",
"@ c #e8742a",
"# c #f4be9c",
"$ c #fefefe",
"% c #fdf7f4",
"& c #ec8d51",
"* c #f3b995",
"= c #f6c8ac",
"- c #fbebe0",
"; c #f6ccb2",
": c #fcf1ea",
"> c #fdf8f4",
", c #f0a171",
"< c #f1ac81",
"1 c #f2b087",
"2 c #e66717",
"3 c #f9dbc9",
"4 c #fae4d6",
"5 c #e66819",
"6 c #f7d1b9",
"7 c #eb813f",
"8 c #e6620f",
"9 c #f4c0a1",
"0 c #ef9c69",
"q c #e55e09",
/* pixels */
" ..............X",
"..............oO",
".............oOO",
"...X+X....X+@OOO",
"...#$%X.. $$&OOO",
"...+$$*..=$-OOOO",
"....;$:.X>$,OOOO",
".... $$<1$%2OOOO",
".....3$44$#OOOOO",
".....,$$$$@OOOOO",
".....54$$6OOOOOO",
"....5O&==7OOOOOO",
"...5OOOOO82OOOOO",
"..5OO9**90#OOOOO",
".5OOO55o2q5OOOOO",
"XOOOOOOOOOOOOOO@"
};
